<svg xmlns="http://www.w3.org/2000/svg" xmlns:xlink="http://www.w3.org/1999/xlink" width="500" zoomAndPan="magnify" viewBox="0 0 375 149.999998" height="200" preserveAspectRatio="xMidYMid meet" version="1.0"><defs><g/></defs><g fill="#000000" fill-opacity="1"><g transform="translate(63.351562, 53.536485)"><g><path d="M 26.59375 -10.25 L 27.453125 -0.625 C 25.003906 0.363281 21.984375 0.859375 18.390625 0.859375 C 14.992188 0.859375 12.179688 0.488281 9.953125 -0.25 C 7.734375 -1 5.972656 -2.132812 4.671875 -3.65625 C 3.367188 -5.1875 2.453125 -7.128906 1.921875 -9.484375 C 1.398438 -11.835938 1.140625 -14.617188 1.140625 -17.828125 C 1.140625 -20.941406 1.382812 -23.664062 1.875 -26 C 2.375 -28.332031 3.257812 -30.285156 4.53125 -31.859375 C 5.800781 -33.429688 7.523438 -34.613281 9.703125 -35.40625 C 11.878906 -36.195312 14.632812 -36.59375 17.96875 -36.59375 C 18.695312 -36.59375 19.515625 -36.550781 20.421875 -36.46875 C 21.328125 -36.394531 22.21875 -36.296875 23.09375 -36.171875 C 23.96875 -36.046875 24.789062 -35.894531 25.5625 -35.71875 C 26.34375 -35.539062 26.972656 -35.34375 27.453125 -35.125 L 25.734375 -26.359375 C 23.191406 -26.898438 20.921875 -27.171875 18.921875 -27.171875 C 16.859375 -27.171875 15.425781 -26.976562 14.625 -26.59375 C 13.832031 -26.207031 13.4375 -25.445312 13.4375 -24.3125 L 13.4375 -9.34375 C 14.164062 -9.1875 14.90625 -9.066406 15.65625 -8.984375 C 16.40625 -8.898438 17.175781 -8.859375 17.96875 -8.859375 C 21.144531 -8.859375 24.019531 -9.320312 26.59375 -10.25 Z M 26.59375 -10.25 "/></g></g></g><g fill="#000000" fill-opacity="1"><g transform="translate(91.940584, 53.536485)"><g><path d="M 1.71875 -14.296875 C 1.71875 -19.410156 2.90625 -23.210938 5.28125 -25.703125 C 7.664062 -28.203125 11.53125 -29.453125 16.875 -29.453125 C 22.207031 -29.453125 26.066406 -28.203125 28.453125 -25.703125 C 30.835938 -23.210938 32.03125 -19.410156 32.03125 -14.296875 C 32.03125 -9.179688 30.835938 -5.375 28.453125 -2.875 C 26.066406 -0.382812 22.207031 0.859375 16.875 0.859375 C 11.664062 0.859375 7.835938 -0.363281 5.390625 -2.8125 C 2.941406 -5.257812 1.71875 -9.085938 1.71875 -14.296875 Z M 14.015625 -18.6875 L 14.015625 -7.484375 L 15.78125 -7.484375 C 17.175781 -7.484375 18.179688 -7.625 18.796875 -7.90625 C 19.421875 -8.195312 19.734375 -8.863281 19.734375 -9.90625 L 19.734375 -21.109375 L 17.96875 -21.109375 C 16.570312 -21.109375 15.5625 -20.960938 14.9375 -20.671875 C 14.320312 -20.390625 14.015625 -19.726562 14.015625 -18.6875 Z M 14.015625 -18.6875 "/></g></g></g><g fill="#000000" fill-opacity="1"><g transform="translate(125.675625, 53.536485)"><g><path d="M 18.875 0 L 18.875 -20.015625 L 18.0625 -20.015625 C 17.550781 -20.015625 17.066406 -20 16.609375 -19.96875 C 16.148438 -19.9375 15.742188 -19.832031 15.390625 -19.65625 C 15.046875 -19.476562 14.773438 -19.210938 14.578125 -18.859375 C 14.390625 -18.515625 14.296875 -18.023438 14.296875 -17.390625 L 14.296875 0 L 2.859375 0 L 2.859375 -28.59375 L 8.578125 -28.59375 L 11.15625 -25.96875 C 13.46875 -28.289062 16.515625 -29.453125 20.296875 -29.453125 C 24.046875 -29.453125 26.78125 -28.671875 28.5 -27.109375 C 30.882812 -28.671875 33.582031 -29.453125 36.59375 -29.453125 C 39.675781 -29.453125 42.066406 -28.867188 43.765625 -27.703125 C 45.472656 -26.546875 46.328125 -24.9375 46.328125 -22.875 L 46.328125 0 L 34.890625 0 L 34.890625 -20.015625 L 34.078125 -20.015625 C 33.628906 -20.015625 33.179688 -20 32.734375 -19.96875 C 32.296875 -19.9375 31.910156 -19.847656 31.578125 -19.703125 C 31.242188 -19.554688 30.957031 -19.320312 30.71875 -19 C 30.476562 -18.6875 30.34375 -18.265625 30.3125 -17.734375 L 30.3125 0 Z M 18.875 0 "/></g></g></g><g fill="#000000" fill-opacity="1"><g transform="translate(174.515206, 53.536485)"><g><path d="M 2.859375 9.4375 L 2.859375 -28.59375 L 8.578125 -28.59375 L 10.671875 -25.734375 C 12.359375 -28.210938 15.472656 -29.453125 20.015625 -29.453125 C 22.304688 -29.453125 24.226562 -29.035156 25.78125 -28.203125 C 27.34375 -27.378906 28.609375 -26.273438 29.578125 -24.890625 C 30.546875 -23.515625 31.242188 -21.90625 31.671875 -20.0625 C 32.097656 -18.21875 32.3125 -16.296875 32.3125 -14.296875 C 32.3125 -12.359375 32.117188 -10.53125 31.734375 -8.8125 C 31.359375 -7.101562 30.722656 -5.585938 29.828125 -4.265625 C 28.941406 -2.941406 27.765625 -1.898438 26.296875 -1.140625 C 24.835938 -0.378906 23.03125 0 20.875 0 L 14.296875 0 L 14.296875 8.578125 Z M 14.296875 -18.96875 L 14.296875 -7.484375 L 16.0625 -7.484375 C 17.457031 -7.484375 18.460938 -7.625 19.078125 -7.90625 C 19.703125 -8.195312 20.015625 -8.863281 20.015625 -9.90625 L 20.015625 -21.109375 L 18.25 -21.109375 C 17.425781 -21.109375 16.757812 -21.078125 16.25 -21.015625 C 15.738281 -20.953125 15.296875 -20.742188 14.921875 -20.390625 C 14.535156 -20.078125 14.328125 -19.601562 14.296875 -18.96875 Z M 14.296875 -18.96875 "/></g></g></g><g fill="#000000" fill-opacity="1"><g transform="translate(208.536143, 53.536485)"><g><path d="M 2.859375 -37.171875 L 14.296875 -38.03125 L 14.296875 -8.203125 C 14.898438 -8.066406 15.4375 -7.96875 15.90625 -7.90625 C 16.382812 -7.84375 16.785156 -7.796875 17.109375 -7.765625 L 16.578125 0.625 C 11.722656 0.625 8.5 0.335938 6.90625 -0.234375 C 5.570312 -0.710938 4.5625 -1.332031 3.875 -2.09375 C 3.195312 -2.851562 2.859375 -3.953125 2.859375 -5.390625 Z M 2.859375 -37.171875 "/></g></g></g><g fill="#000000" fill-opacity="1"><g transform="translate(226.213682, 53.536485)"><g><path d="M 14.015625 -9.71875 L 14.015625 -7.71875 C 14.585938 -7.65625 15.15625 -7.609375 15.71875 -7.578125 C 16.289062 -7.546875 16.863281 -7.53125 17.4375 -7.53125 C 21 -7.53125 24.59375 -8.101562 28.21875 -9.25 L 29.546875 -0.859375 C 25.253906 0.285156 21.03125 0.859375 16.875 0.859375 C 11.53125 0.859375 7.664062 -0.382812 5.28125 -2.875 C 2.90625 -5.375 1.71875 -9.179688 1.71875 -14.296875 C 1.71875 -19.410156 2.914062 -23.210938 5.3125 -25.703125 C 7.707031 -28.203125 11.5625 -29.453125 16.875 -29.453125 C 19.539062 -29.453125 21.765625 -29.285156 23.546875 -28.953125 C 25.328125 -28.617188 26.765625 -28.0625 27.859375 -27.28125 C 28.953125 -26.5 29.726562 -25.445312 30.1875 -24.125 C 30.644531 -22.8125 30.875 -21.15625 30.875 -19.15625 C 30.875 -17.507812 30.597656 -16.085938 30.046875 -14.890625 C 29.492188 -13.703125 28.566406 -12.722656 27.265625 -11.953125 C 25.960938 -11.191406 24.226562 -10.628906 22.0625 -10.265625 C 19.90625 -9.898438 17.222656 -9.71875 14.015625 -9.71875 Z M 14.015625 -18.6875 L 14.015625 -16.34375 L 16.34375 -16.34375 C 17.738281 -16.34375 18.742188 -16.484375 19.359375 -16.765625 C 19.984375 -17.054688 20.296875 -17.726562 20.296875 -18.78125 L 20.296875 -21.109375 L 17.96875 -21.109375 C 16.570312 -21.109375 15.5625 -20.960938 14.9375 -20.671875 C 14.320312 -20.390625 14.015625 -19.726562 14.015625 -18.6875 Z M 14.015625 -18.6875 "/></g></g></g><g fill="#000000" fill-opacity="1"><g transform="translate(258.519275, 53.536485)"><g><path d="M 4 -21.203125 L 1.140625 -21.203125 L 1.140625 -28.59375 L 4 -28.59375 L 4 -33.171875 L 15.4375 -36.03125 L 15.4375 -28.59375 L 19.390625 -28.59375 L 19.390625 -21.203125 L 15.4375 -21.203125 L 15.4375 -8.203125 C 15.914062 -8.097656 16.441406 -8.003906 17.015625 -7.921875 C 17.585938 -7.847656 18.191406 -7.796875 18.828125 -7.765625 L 18.296875 0.625 C 13.085938 0.625 9.691406 0.335938 8.109375 -0.234375 C 6.765625 -0.710938 5.742188 -1.320312 5.046875 -2.0625 C 4.347656 -2.8125 4 -3.921875 4 -5.390625 Z M 4 -21.203125 "/></g></g></g><g fill="#000000" fill-opacity="1"><g transform="translate(279.341616, 53.536485)"><g><path d="M 14.015625 -9.71875 L 14.015625 -7.71875 C 14.585938 -7.65625 15.15625 -7.609375 15.71875 -7.578125 C 16.289062 -7.546875 16.863281 -7.53125 17.4375 -7.53125 C 21 -7.53125 24.59375 -8.101562 28.21875 -9.25 L 29.546875 -0.859375 C 25.253906 0.285156 21.03125 0.859375 16.875 0.859375 C 11.53125 0.859375 7.664062 -0.382812 5.28125 -2.875 C 2.90625 -5.375 1.71875 -9.179688 1.71875 -14.296875 C 1.71875 -19.410156 2.914062 -23.210938 5.3125 -25.703125 C 7.707031 -28.203125 11.5625 -29.453125 16.875 -29.453125 C 19.539062 -29.453125 21.765625 -29.285156 23.546875 -28.953125 C 25.328125 -28.617188 26.765625 -28.0625 27.859375 -27.28125 C 28.953125 -26.5 29.726562 -25.445312 30.1875 -24.125 C 30.644531 -22.8125 30.875 -21.15625 30.875 -19.15625 C 30.875 -17.507812 30.597656 -16.085938 30.046875 -14.890625 C 29.492188 -13.703125 28.566406 -12.722656 27.265625 -11.953125 C 25.960938 -11.191406 24.226562 -10.628906 22.0625 -10.265625 C 19.90625 -9.898438 17.222656 -9.71875 14.015625 -9.71875 Z M 14.015625 -18.6875 L 14.015625 -16.34375 L 16.34375 -16.34375 C 17.738281 -16.34375 18.742188 -16.484375 19.359375 -16.765625 C 19.984375 -17.054688 20.296875 -17.726562 20.296875 -18.78125 L 20.296875 -21.109375 L 17.96875 -21.109375 C 16.570312 -21.109375 15.5625 -20.960938 14.9375 -20.671875 C 14.320312 -20.390625 14.015625 -19.726562 14.015625 -18.6875 Z M 14.015625 -18.6875 "/></g></g></g><g fill="#000000" fill-opacity="1"><g transform="translate(6.597659, 119.536481)"><g/></g></g><g fill="#000000" fill-opacity="1"><g transform="translate(20.894533, 119.536481)"><g><path d="M 14.0625 -17.34375 L 14.390625 -17.34375 L 18.828125 0 L 27.546875 0 L 31.9375 -17.34375 L 32.3125 -17.34375 L 32.984375 0 L 44.9375 0 L 42.796875 -35.75 L 27.828125 -35.75 L 23.40625 -17.53125 L 22.96875 -17.53125 L 18.53125 -35.75 L 3.625 -35.75 L 1.4375 0 L 13.390625 0 Z M 14.0625 -17.34375 "/></g></g></g><g fill="#000000" fill-opacity="1"><g transform="translate(67.2564, 119.536481)"><g><path d="M 1.71875 -14.296875 C 1.71875 -19.410156 2.90625 -23.210938 5.28125 -25.703125 C 7.664062 -28.203125 11.53125 -29.453125 16.875 -29.453125 C 22.207031 -29.453125 26.066406 -28.203125 28.453125 -25.703125 C 30.835938 -23.210938 32.03125 -19.410156 32.03125 -14.296875 C 32.03125 -9.179688 30.835938 -5.375 28.453125 -2.875 C 26.066406 -0.382812 22.207031 0.859375 16.875 0.859375 C 11.664062 0.859375 7.835938 -0.363281 5.390625 -2.8125 C 2.941406 -5.257812 1.71875 -9.085938 1.71875 -14.296875 Z M 14.015625 -18.6875 L 14.015625 -7.484375 L 15.78125 -7.484375 C 17.175781 -7.484375 18.179688 -7.625 18.796875 -7.90625 C 19.421875 -8.195312 19.734375 -8.863281 19.734375 -9.90625 L 19.734375 -21.109375 L 17.96875 -21.109375 C 16.570312 -21.109375 15.5625 -20.960938 14.9375 -20.671875 C 14.320312 -20.390625 14.015625 -19.726562 14.015625 -18.6875 Z M 14.015625 -18.6875 "/></g></g></g><g fill="#000000" fill-opacity="1"><g transform="translate(100.991441, 119.536481)"><g><path d="M 1.71875 -14.296875 C 1.71875 -19.410156 2.90625 -23.210938 5.28125 -25.703125 C 7.664062 -28.203125 11.53125 -29.453125 16.875 -29.453125 C 22.207031 -29.453125 26.066406 -28.203125 28.453125 -25.703125 C 30.835938 -23.210938 32.03125 -19.410156 32.03125 -14.296875 C 32.03125 -9.179688 30.835938 -5.375 28.453125 -2.875 C 26.066406 -0.382812 22.207031 0.859375 16.875 0.859375 C 11.664062 0.859375 7.835938 -0.363281 5.390625 -2.8125 C 2.941406 -5.257812 1.71875 -9.085938 1.71875 -14.296875 Z M 14.015625 -18.6875 L 14.015625 -7.484375 L 15.78125 -7.484375 C 17.175781 -7.484375 18.179688 -7.625 18.796875 -7.90625 C 19.421875 -8.195312 19.734375 -8.863281 19.734375 -9.90625 L 19.734375 -21.109375 L 17.96875 -21.109375 C 16.570312 -21.109375 15.5625 -20.960938 14.9375 -20.671875 C 14.320312 -20.390625 14.015625 -19.726562 14.015625 -18.6875 Z M 14.015625 -18.6875 "/></g></g></g><g fill="#000000" fill-opacity="1"><g transform="translate(134.726482, 119.536481)"><g><path d="M 2.859375 -28.59375 L 8.578125 -28.59375 L 11.4375 -25.734375 C 14.96875 -28.210938 18.78125 -29.453125 22.875 -29.453125 C 25.570312 -29.453125 27.675781 -28.867188 29.1875 -27.703125 C 30.695312 -26.546875 31.453125 -24.9375 31.453125 -22.875 L 31.453125 0 L 20.015625 0 L 20.015625 -20.015625 L 18.25 -20.015625 C 16.945312 -20.015625 15.960938 -19.878906 15.296875 -19.609375 C 14.628906 -19.335938 14.296875 -18.742188 14.296875 -17.828125 L 14.296875 0 L 2.859375 0 Z M 2.859375 -28.59375 "/></g></g></g><g fill="#000000" fill-opacity="1"><g transform="translate(168.747419, 119.536481)"><g/></g></g><g fill="#000000" fill-opacity="1"><g transform="translate(183.041923, 119.536481)"><g><path d="M 14.0625 -17.34375 L 14.390625 -17.34375 L 18.828125 0 L 27.546875 0 L 31.9375 -17.34375 L 32.3125 -17.34375 L 32.984375 0 L 44.9375 0 L 42.796875 -35.75 L 27.828125 -35.75 L 23.40625 -17.53125 L 22.96875 -17.53125 L 18.53125 -35.75 L 3.625 -35.75 L 1.4375 0 L 13.390625 0 Z M 14.0625 -17.34375 "/></g></g></g><g fill="#000000" fill-opacity="1"><g transform="translate(229.40379, 119.536481)"><g><path d="M 16.390625 -29.453125 C 25.546875 -29.453125 30.125 -26.304688 30.125 -20.015625 L 30.125 0 L 24.40625 0 L 21.15625 -3.234375 C 20.582031 -2.597656 19.90625 -2.023438 19.125 -1.515625 C 18.351562 -1.015625 17.519531 -0.585938 16.625 -0.234375 C 15.738281 0.109375 14.832031 0.375 13.90625 0.5625 C 12.988281 0.757812 12.101562 0.859375 11.25 0.859375 C 9.625 0.859375 8.164062 0.691406 6.875 0.359375 C 5.59375 0.0234375 4.503906 -0.503906 3.609375 -1.234375 C 2.722656 -1.960938 2.039062 -2.929688 1.5625 -4.140625 C 1.09375 -5.347656 0.859375 -6.828125 0.859375 -8.578125 C 0.859375 -15.441406 6.035156 -18.875 16.390625 -18.875 L 18.6875 -18.875 L 18.6875 -20.921875 C 18.082031 -20.953125 17.53125 -20.984375 17.03125 -21.015625 C 16.539062 -21.046875 16.085938 -21.0625 15.671875 -21.0625 C 11.390625 -21.0625 7.691406 -20.535156 4.578125 -19.484375 L 3.1875 -27.6875 C 7 -28.863281 11.398438 -29.453125 16.390625 -29.453125 Z M 12.390625 -9.8125 L 12.390625 -7.484375 L 14.78125 -7.484375 C 16.425781 -7.484375 17.503906 -7.671875 18.015625 -8.046875 C 18.460938 -8.460938 18.6875 -8.957031 18.6875 -9.53125 L 18.6875 -12.25 L 16.34375 -12.25 C 14.976562 -12.25 13.976562 -12.101562 13.34375 -11.8125 C 12.707031 -11.53125 12.390625 -10.863281 12.390625 -9.8125 Z M 12.390625 -9.8125 "/></g></g></g><g fill="#000000" fill-opacity="1"><g transform="translate(261.80469, 119.536481)"><g><path d="M 2.859375 0 L 2.859375 -28.59375 L 8.578125 -28.59375 L 11.71875 -25.40625 C 14.007812 -27.5 16.835938 -28.847656 20.203125 -29.453125 L 20.875 -18.640625 C 20.425781 -18.640625 19.882812 -18.570312 19.25 -18.4375 C 18.613281 -18.3125 17.96875 -18.15625 17.3125 -17.96875 C 16.664062 -17.78125 16.070312 -17.550781 15.53125 -17.28125 C 14.988281 -17.007812 14.578125 -16.695312 14.296875 -16.34375 L 14.296875 0 Z M 2.859375 0 "/></g></g></g><g fill="#000000" fill-opacity="1"><g transform="translate(283.246454, 119.536481)"><g><path d="M 31.453125 0 L 24.546875 -14.96875 L 31.171875 -28.59375 L 18.828125 -28.59375 L 14.671875 -19.15625 L 14.296875 -19.15625 L 14.296875 -38.03125 L 2.859375 -37.171875 L 2.859375 0 L 14.296875 0 L 14.296875 -11.34375 L 14.671875 -11.34375 L 19.109375 0 Z M 31.453125 0 "/></g></g></g><g fill="#000000" fill-opacity="1"><g transform="translate(315.266174, 119.536481)"><g><path d="M 14.015625 -9.71875 L 14.015625 -7.71875 C 14.585938 -7.65625 15.15625 -7.609375 15.71875 -7.578125 C 16.289062 -7.546875 16.863281 -7.53125 17.4375 -7.53125 C 21 -7.53125 24.59375 -8.101562 28.21875 -9.25 L 29.546875 -0.859375 C 25.253906 0.285156 21.03125 0.859375 16.875 0.859375 C 11.53125 0.859375 7.664062 -0.382812 5.28125 -2.875 C 2.90625 -5.375 1.71875 -9.179688 1.71875 -14.296875 C 1.71875 -19.410156 2.914062 -23.210938 5.3125 -25.703125 C 7.707031 -28.203125 11.5625 -29.453125 16.875 -29.453125 C 19.539062 -29.453125 21.765625 -29.285156 23.546875 -28.953125 C 25.328125 -28.617188 26.765625 -28.0625 27.859375 -27.28125 C 28.953125 -26.5 29.726562 -25.445312 30.1875 -24.125 C 30.644531 -22.8125 30.875 -21.15625 30.875 -19.15625 C 30.875 -17.507812 30.597656 -16.085938 30.046875 -14.890625 C 29.492188 -13.703125 28.566406 -12.722656 27.265625 -11.953125 C 25.960938 -11.191406 24.226562 -10.628906 22.0625 -10.265625 C 19.90625 -9.898438 17.222656 -9.71875 14.015625 -9.71875 Z M 14.015625 -18.6875 L 14.015625 -16.34375 L 16.34375 -16.34375 C 17.738281 -16.34375 18.742188 -16.484375 19.359375 -16.765625 C 19.984375 -17.054688 20.296875 -17.726562 20.296875 -18.78125 L 20.296875 -21.109375 L 17.96875 -21.109375 C 16.570312 -21.109375 15.5625 -20.960938 14.9375 -20.671875 C 14.320312 -20.390625 14.015625 -19.726562 14.015625 -18.6875 Z M 14.015625 -18.6875 "/></g></g></g><g fill="#000000" fill-opacity="1"><g transform="translate(347.571767, 119.536481)"><g><path d="M 4 -21.203125 L 1.140625 -21.203125 L 1.140625 -28.59375 L 4 -28.59375 L 4 -33.171875 L 15.4375 -36.03125 L 15.4375 -28.59375 L 19.390625 -28.59375 L 19.390625 -21.203125 L 15.4375 -21.203125 L 15.4375 -8.203125 C 15.914062 -8.097656 16.441406 -8.003906 17.015625 -7.921875 C 17.585938 -7.847656 18.191406 -7.796875 18.828125 -7.765625 L 18.296875 0.625 C 13.085938 0.625 9.691406 0.335938 8.109375 -0.234375 C 6.765625 -0.710938 5.742188 -1.320312 5.046875 -2.0625 C 4.347656 -2.8125 4 -3.921875 4 -5.390625 Z M 4 -21.203125 "/></g></g></g></svg>