<svg xmlns="http://www.w3.org/2000/svg" xml:space="preserve" id="Calque_1" width="2546.8" height="901.7" x="0px" y="0px" version="1.1" viewBox="0 0 2546.8 901.7"><style>.st0{fill:#3578e5}</style><path d="M97.3 393c6.7-1.4 13.6-2.4 20.5-3l53.6-5.1-72.8-79.8c-21.9-24.1-34-55.3-34-87.9H4.4c0 47.6 17.7 93.3 49.8 128.5zM285.3 509.9c-5.4 1-10.9 1.7-16.4 2.3l-58 5.5 72.6 79.6c21.9 24.1 34 55.3 34 87.9h60.3c0-47.6-17.7-93.2-49.8-128.5z" class="st0"/><path d="M385 333c-9.9-49.2-48.5-85-98.3-91.3l-9.2-1.2c-31.1-3.9-54.6-30.5-54.6-61.8v-32.1c27.6-11.5 47-38.7 47-70.4 0-42.1-34.1-76.2-76.2-76.2s-76.2 34.1-76.2 76.2c0 31 18.6 57.7 45.2 69.6v32.9c0 61.7 46.1 114 107.3 121.6l9.2 1.2c28.7 3.6 43 24.8 46.8 43.4s-1.1 43.7-26.2 58.2c-12.3 7.1-25.6 11.4-39.7 12.7l-138.3 13c-22.8 2.2-44.4 9.1-64.2 20.5-43.5 25.2-65.2 73.2-55.2 122.4 9.9 49.2 48.5 85 98.3 91.3l9.2 1.2c31.1 3.9 54.6 30.5 54.6 61.8v29.2c-27.5 11.5-46.8 38.7-46.8 70.3 0 42.1 34.1 76.2 76.2 76.2s76.2-34.1 76.2-76.2c0-31.1-18.7-57.9-45.4-69.7V726c0-61.7-46.1-114-107.3-121.6l-9.2-1.2c-28.7-3.6-43-24.8-46.8-43.4s1.1-43.7 26.2-58.2c12.3-7.1 25.6-11.4 39.7-12.7l138.3-13c22.8-2.2 44.4-9.1 64.2-20.5 43.5-25.2 65.1-73.2 55.2-122.4M1426.6 675H1224c-69.8 0-126.6-56.8-126.6-126.6V362.8c0-69.8 56.8-126.6 126.6-126.6h108.3c69.8 0 126.6 56.8 126.6 126.6V392c0 53.7-43.7 97.4-97.4 97.4h-206.1v59.1c0 37.8 30.8 68.6 68.6 68.6h202.5V675zm-271.1-243.6h206.1c21.7 0 39.4-17.7 39.4-39.4v-29.2c0-37.8-30.8-68.6-68.6-68.6H1224c-37.8 0-68.6 30.8-68.6 68.6v68.6zM2363.4 272.7h58v395.2h-58zM2171.5 675h-108.3c-69.8 0-126.6-56.8-126.6-126.6V362.8c0-69.8 56.8-126.6 126.6-126.6h108.3c69.8 0 126.6 56.8 126.6 126.6v185.7c-.1 69.8-56.8 126.5-126.6 126.5m-108.3-380.8c-37.8 0-68.6 30.8-68.6 68.6v185.7c0 37.8 30.8 68.6 68.6 68.6h108.3c37.8 0 68.6-30.8 68.6-68.6V362.8c0-37.8-30.8-68.6-68.6-68.6zM2488.9 146.9h58V668h-58zM2363.4 148.8h58v54.3h-58zM1747.3 679.8H1639c-69.8 0-126.6-56.8-126.6-126.6V367.5c0-69.8 56.8-126.6 126.6-126.6h108.3c69.8 0 126.6 56.8 126.6 126.6v29h-58v-29c0-37.8-30.8-68.6-68.6-68.6H1639c-37.8 0-68.6 30.8-68.6 68.6v185.7c0 37.8 30.8 68.6 68.6 68.6h108.3c37.8 0 68.6-30.8 68.6-68.6v-29h58v29c0 69.8-56.8 126.6-126.6 126.6M1011.7 685.1h-58v-20c0-34.6-13.1-67.7-37-93.3l-.8-.8-54.8-69.1 45.5-36 53.3 67.3c33.4 36.2 51.7 83.1 51.7 131.9v20z" class="st0"/><path d="m710.4 685.1-58-.2 1.1-369.4c.1-42.4 35.1-76.8 78.1-76.8h.3c28.7.3 56.5-.2 83.5-.6 27.3-.4 55.5-.9 85-.6 19.3.2 56 4.9 85.6 34.2 19.5 19.2 31.6 46.2 34.3 76 2.5 28.4-3.7 56.6-17.6 79.4-23.9 39.5-63.7 53.1-79.7 57.1l-41.4 10.5c-32.1 7.8-63.4 15.7-93.6 23.3-25 6.3-50.6 12.8-77 19.3zm21.1-388.4c-11 .1-19.9 8.6-20 19l-.5 161.8c21.3-5.3 42.2-10.6 62.6-15.7 30.3-7.7 61.7-15.6 94-23.4l41.1-10.4c9-2.2 31.4-9.8 44.2-30.9 15.7-25.9 12.1-64.4-7.9-84.2-15.6-15.4-36.9-17.3-45.4-17.4-28.6-.3-56.5.2-83.4.6-27.2.4-55.4.9-84.7.6" class="st0"/></svg>